<?xml version="1.0" encoding="utf-8"?>
<!-- Generator: Adobe Illustrator 16.0.0, SVG Export Plug-In . SVG Version: 6.00 Build 0)  -->
<!DOCTYPE svg PUBLIC "-//W3C//DTD SVG 1.1//EN" "http://www.w3.org/Graphics/SVG/1.1/DTD/svg11.dtd">
<svg version="1.1" id="Layer_1" xmlns="http://www.w3.org/2000/svg" xmlns:xlink="http://www.w3.org/1999/xlink" x="0px" y="0px"
	 width="150px" height="150px" viewBox="0 0 150 150" enable-background="new 0 0 150 150" xml:space="preserve">
<g>
	<g>
		<g>
			<path fill="#202020" d="M14.536,58.742c0.931,0.538,1.884,1.063,2.789,1.647l1.372,0.855l1.409,0.742
				c1.86,1,3.858,1.779,5.854,2.468c4.016,1.342,8.224,2.073,12.413,2.368l3.226,0.204c1.072,0.058,2.118,0.042,3.175,0.066
				c2.098,0.077,4.237-0.066,6.352-0.093l3.176-0.204l1.586-0.105l1.549-0.185l6.419-0.769c4.314-0.421,8.465-1.28,12.674-1.935
				l1.576-0.238l0.788-0.119l0.395-0.059c-0.138,0.022-0.01,0-0.027,0.002l0.049-0.01l0.1-0.02l0.197-0.041l3.18-0.573
				c2.121-0.364,4.252-0.706,6.359-1.123c4.167-1.049,8.394-1.736,12.647-2.473c4.209-0.78,8.581-1.353,12.894-1.96
				c1.206-0.099,2.17-0.167,3.303-0.22c1.129-0.002,2.282-0.057,3.381-0.008c1.103,0.047,2.209,0.06,3.299,0.158l1.64,0.121
				l0.204,0.015l0.052,0.004c0.257,0.024,0.1,0.011,0.17,0.019l0.1,0.017l0.398,0.067l0.398,0.067
				c0.126,0.019,0.262,0.042,0.453,0.106c0.351,0.107,0.698,0.224,1.039,0.348c0.327,0.14,0.614,0.332,0.916,0.502
				c0.31,0.154,0.561,0.417,0.825,0.646c0.129,0.12,0.262,0.235,0.384,0.361l0.316,0.423c0.838,1.127,1.23,2.505,1.224,3.773
				l0.007,0.12l0.004,0.061c-0.01,0.299-0.006,0.112-0.01,0.191l-0.024,0.201l-0.05,0.401l-0.024,0.201l-0.08,0.288
				c-0.059,0.194-0.122,0.387-0.19,0.577c-0.292,0.719-0.683,1.235-1.115,1.715c-0.867,0.927-1.81,1.547-2.63,2.183
				c-3.386,2.618-6.795,5.291-10.148,7.984c-3.38,2.673-6.706,5.41-10.056,8.118l-9.957,8.237l-9.858,8.367
				c-3.354,2.753-6.626,5.489-9.598,8.497l-8.479,9.717l0.132-0.159c-1.133,1.575-2.26,3.213-3.41,4.72
				c-0.58,0.77-1.153,1.529-1.667,2.289c-0.52,0.769-1.099,1.492-1.542,2.315l-1.416,2.404c-0.48,0.831-1.02,1.749-1.538,2.548
				c-1.046,1.627-2.092,3.224-3.094,4.833c-0.992,1.596-1.991,3.249-2.734,4.795c-0.182,0.371-0.33,0.765-0.38,0.949
				c0.027-0.372-0.065,0.615-0.006,0.2c-0.021-0.191-0.076-0.293-0.195-0.427c-0.133-0.138-0.297-0.19-0.35-0.199
				c-0.01-0.018-0.063,0.012-0.039,0.002c0.021-0.011,0.04-0.012,0.063-0.005c0.03-0.002,0.089-0.035,0.134-0.044
				c0.046-0.014,0.084-0.015,0.22-0.075l0.665-0.278c3.564-1.445,7.132-2.877,10.884-4.092c0.976-0.273,1.892-0.622,2.913-0.809
				c0.957-0.166,1.862-0.383,2.862-0.506c1.992-0.272,3.948-0.465,5.921-0.447c3.939-0.03,7.866,0.622,11.553,1.889
				c1.839,0.646,3.62,1.438,5.333,2.332c0.854,0.434,1.696,0.95,2.54,1.236c0.424,0.12,0.872,0.195,1.255,0.024
				c0.377-0.177,0.617-0.563,0.761-0.962l0.015-0.035c0.084-0.115-0.098,0.118-0.076,0.075l0.009-0.047
				c0.015-0.031-0.005-0.021-0.04,0.028c-0.056,0.056-0.083,0.193-0.093,0.213c-0.015,0.01-0.025,0.021-0.034,0.032
				c-0.041,0.013-0.103-0.033-0.164-0.085c-0.122-0.114-0.297-0.255-0.44-0.404c-0.31-0.3-0.567-0.664-0.83-1.036
				c-0.535-0.739-1.125-1.474-1.722-2.203c-1.181-1.474-2.4-2.939-3.614-4.414c-2.43-2.948-4.887-5.899-7.492-8.71
				c-1.299-1.409-2.637-2.782-3.989-4.138l-2.036-2.018l-0.513-0.496l-0.129-0.123l-0.156-0.161l-0.248-0.262l-0.991-1.045
				l-3.965-4.182c-1.326-1.395-2.667-2.721-4.034-4.092c-1.362-1.354-2.746-2.645-4.133-3.953c-1.432-1.258-2.803-2.585-4.282-3.783
				l-2.186-1.834l-2.25-1.75c-1.484-1.188-3.049-2.262-4.582-3.379c-0.757-0.572-1.576-1.052-2.363-1.58
				c-0.797-0.513-1.574-1.058-2.38-1.555c-1.639-0.939-3.245-1.981-4.91-2.84c-1.689-0.899-3.375-1.881-5.074-2.66
				c-1.691-0.836-3.377-1.692-5.14-2.397l-2.619-1.128c-0.877-0.365-1.788-0.633-2.68-0.968c-1.778-0.668-3.604-1.298-5.402-2.031
				l0.098-0.395c1.89,0.342,3.754,0.78,5.668,1.173c0.946,0.22,1.906,0.409,2.84,0.679l2.772,0.908
				c1.873,0.552,3.652,1.36,5.454,2.122c1.837,0.73,3.488,1.669,5.22,2.514c0.44,0.224,0.833,0.415,1.306,0.678l1.263,0.731
				l2.527,1.465c1.642,1.042,3.287,2.089,4.871,3.216c1.563,1.155,3.169,2.257,4.649,3.517l2.256,1.842l2.184,1.921
				c1.477,1.259,2.843,2.633,4.261,3.95c1.37,1.366,2.757,2.737,4.082,4.13c1.308,1.387,2.658,2.802,3.94,4.228l3.92,4.224
				l0.98,1.056l0.245,0.264c0.027,0.029,0.111,0.121,0.092,0.1l0.131,0.127l0.517,0.511l2.035,2.06l4.02,4.15
				c2.684,2.761,5.449,5.447,8.104,8.258c1.326,1.408,2.613,2.854,3.846,4.369c0.607,0.768,1.202,1.547,1.776,2.375
				c0.291,0.412,0.569,0.846,0.74,1.378c0.092,0.27,0.148,0.551,0.199,0.886c0.021,0.173,0.035,0.356,0.023,0.607
				c-0.005,0.072-0.013,0.143-0.024,0.212c-0.009,0.08-0.057,0.275-0.12,0.391c-0.038,0.079-0.067,0.118-0.071,0.111l-0.037,0.03
				c0.009-0.016-0.193,0.24-0.133,0.145l-0.052,0.026c-0.533,0.272-1.07,0.5-1.63,0.58c-0.553,0.07-1.086,0.05-1.586-0.086
				c-0.989-0.305-1.808-0.786-2.679-1.189c-1.719-0.831-3.48-1.555-5.31-2.053c-3.643-1.053-7.464-1.307-11.194-0.953
				c-1.868,0.147-3.727,0.494-5.512,0.906c-0.896,0.188-1.842,0.504-2.76,0.75l-0.347,0.099c-0.04,0.013-0.156,0.041-0.133,0.042
				l-0.161,0.063l-0.642,0.256l-1.285,0.498c-3.453,1.449-6.945,3.063-10.437,4.652l-0.659,0.292
				c-0.083,0.041-0.274,0.112-0.456,0.174c-0.185,0.06-0.348,0.126-0.553,0.168c-0.215,0.037-0.434,0.066-0.651,0.086
				c-0.214,0.024-0.506-0.018-0.755-0.05c-0.519-0.087-1.144-0.352-1.599-0.845c-0.446-0.476-0.708-1.043-0.781-1.707
				c-0.02-0.147-0.035-0.359-0.033-0.448l0.01-0.18l0.011-0.18l0.005-0.09c0.05-0.418,0.022-0.154,0.038-0.264l0.016-0.066
				c0.168-0.752,0.39-1.25,0.608-1.75c0.892-1.935,1.941-3.544,2.972-5.21c1.039-1.646,2.108-3.256,3.15-4.854
				c0.533-0.809,0.999-1.528,1.5-2.348l1.58-2.519c2.21-3.359,4.827-6.198,7.1-9.185l0.082-0.106l0.051-0.053l8.998-9.321
				c3.238-2.974,6.721-5.6,10.155-8.147c3.432-2.609,6.737-5.35,10.108-8.042l9.97-8.222c3.292-2.777,6.607-5.526,9.87-8.341
				c3.291-2.789,6.516-5.613,9.783-8.467c0.845-0.724,1.671-1.364,2.234-2.054c0.273-0.329,0.5-0.718,0.591-1.001
				c0.017-0.066,0.037-0.128,0.063-0.19c0.013-0.033,0.029-0.057,0.043-0.096l0.014-0.202l0.026-0.403l0.013-0.202
				c-0.002,0.046,0.01-0.175-0.004,0.091l-0.006-0.04l-0.012-0.081c-0.042-0.886-0.364-1.659-0.84-2.227
				c-0.462-0.551-1.23-0.961-1.883-1.076c-0.062-0.033-0.192-0.048-0.334-0.059l-0.402-0.04l-0.402-0.04l-0.101-0.01
				c0.037,0.003-0.153-0.016,0.07,0.007l-0.05,0l-0.198-0.001l-1.589-0.008c-1.062-0.024-2.11,0.039-3.161,0.064
				c-1.056,0.025-2.052,0.148-3.075,0.213c-1.014,0.113-2.192,0.281-3.125,0.421c-4.176,0.865-8.317,1.623-12.531,2.66
				c-4.198,0.932-8.389,2.086-12.651,2.813l-6.335,1.289l-3.172,0.618L80.037,68.4l-0.406,0.049l-0.813,0.098l-1.626,0.194
				l-6.506,0.68c-1.082,0.099-2.17,0.254-3.244,0.306l-3.227,0.185l-6.453,0.37l-1.67,0.093l-1.643,0.008l-3.281,0.006
				c-2.191-0.097-4.364-0.122-6.565-0.357c-1.092-0.105-2.202-0.173-3.274-0.309l-3.203-0.437c-4.364-0.64-8.667-1.67-12.697-3.431
				c-2.008-0.889-3.968-1.85-5.812-3.051l-1.381-0.886l-1.295-0.968c-0.854-0.66-1.744-1.252-2.63-1.87L14.536,58.742z"/>
		</g>
	</g>
	<g>
		<path fill="#202020" d="M29.173,53.961c0,0-0.141-0.168-0.414-0.495c-0.277-0.313-0.693-0.768-1.262-1.362
			c-1.151-1.173-2.84-2.895-4.99-5.085c-1.081-1.097-2.254-2.33-3.515-3.719c-0.631-0.702-1.272-1.42-1.927-2.318
			c-0.346-0.497-0.6-0.879-0.888-1.324c-0.283-0.435-0.57-0.876-0.861-1.325c-0.584-0.897-1.165-1.867-1.776-2.844
			c-0.599-0.988-1.154-2.036-1.758-3.097c-0.282-0.543-0.568-1.093-0.858-1.649c-0.144-0.28-0.289-0.561-0.434-0.844l-0.219-0.426
			l-0.055-0.107c-0.025-0.058,0.018,0.055-0.063-0.144l-0.023-0.054l-0.092-0.217c-0.064-0.16-0.119-0.257-0.185-0.471l-0.189-0.635
			c-0.108-0.416-0.175-0.77-0.237-1.154c-0.116-0.753-0.156-1.485-0.176-2.205c0-0.35-0.001-0.702-0.002-1.056l0.003-0.26
			l0.002-0.13l0.001-0.065l0.02-0.233l0.026-0.25c0.039-0.208,0.093-0.427,0.159-0.635c0.485-1.323,1.285-2.026,2.091-2.603
			c0.818-0.563,1.717-0.9,2.664-1.103c0.477-0.088,0.966-0.149,1.469-0.143l0.371,0.006l0.264,0.013l0.53,0.025
			c2.828,0.142,5.79,0.24,8.865,0.606c1.534,0.174,3.099,0.428,4.672,0.759c0.752,0.161,1.508,0.323,2.269,0.485
			c0.74,0.15,1.457,0.303,1.976,0.344c0.537,0.025,0.61,0.021,1.083-0.246c0.44-0.287,1.012-0.832,1.565-1.373
			c1.154-1.135,2.319-2.281,3.495-3.437c1.192-1.142,2.334-2.33,3.586-3.473c1.239-1.146,2.469-2.313,3.686-3.504
			c0.599-0.59,1.247-1.184,1.932-1.747c0.68-0.564,1.391-1.119,2.206-1.573c0.803-0.458,1.729-0.829,2.721-0.922
			c0.991-0.099,1.987,0.066,2.872,0.384c1.789,0.64,3.233,1.687,4.701,2.708c1.402,0.996,2.809,2.121,4.188,3.218l2.047,1.663
			c0.331,0.269,0.694,0.58,1.002,0.811c0.255,0.186,0.514,0.301,0.66,0.304c0.278,0.041,0.8-0.201,1.634-0.679l2.308-1.269
			c3.087-1.68,6.123-3.426,9.278-4.991c1.56-0.812,3.139-1.575,4.704-2.357c1.543-0.76,3.146-1.624,5.149-2.173
			c0.97-0.278,2.035-0.452,3.154-0.463c1.117-0.011,2.306,0.184,3.398,0.612c2.214,0.84,3.823,2.524,4.924,3.923
			c0.259,0.297,0.56,0.721,0.848,1.115c0.302,0.402,0.55,0.788,0.798,1.173c0.503,0.765,0.968,1.575,1.377,2.34
			c0.784,1.474,1.563,2.938,2.334,4.389c0.74,1.484,1.475,2.956,2.202,4.414l0.271,0.547l0.067,0.137l0.034,0.068
			c0.06,0.116-0.044-0.081-0.02-0.036c0.03,0.057,0.145,0.266,0.068,0.12c-0.048-0.072-0.085-0.125-0.133-0.167
			c-0.063-0.069-0.142-0.133-0.271-0.219c-0.244-0.166-0.639-0.262-0.849-0.251c-0.438,0.037-0.236,0.061-0.01-0.062
			c0.48-0.22,0.732-0.323,1.174-0.499c0.449-0.157,0.965-0.352,1.359-0.462c0.407-0.117,0.819-0.25,1.219-0.352
			c0.804-0.212,1.598-0.397,2.382-0.567c1.57-0.333,3.115-0.624,4.646-0.86c3.074-0.454,6.038-0.793,9.082-0.829
			c0.375-0.01,0.764-0.003,1.161,0.016c0.384,0.007,0.785,0.03,1.216,0.083c0.225,0.027,0.385,0.034,0.66,0.08l0.547,0.104
			c0.473,0.1,0.879,0.208,1.315,0.371c0.857,0.303,1.771,0.806,2.517,1.549c0.743,0.74,1.252,1.667,1.521,2.513
			c0.069,0.213,0.135,0.425,0.181,0.631l0.037,0.155l0.019,0.077l0.039,0.192l0.033,0.242c0.08,0.709,0.013,1.188-0.066,1.647
			c-0.183,0.9-0.488,1.62-0.81,2.281c-0.652,1.31-1.409,2.384-2.177,3.389c-1.539,1.996-3.117,3.693-4.62,5.259
			c-3.044,3.089-5.804,5.61-8.087,7.672c-2.273,2.068-4.076,3.664-5.235,4.807c-0.581,0.567-1.003,1.022-1.246,1.34
			c-0.255,0.324-0.296,0.47-0.296,0.471l-0.486-0.12c0.001,0,0.055-0.292,0.278-0.676c0.216-0.397,0.578-0.933,1.079-1.602
			c1.006-1.333,2.569-3.192,4.592-5.506c2.003-2.33,4.493-5.102,7.142-8.392c1.326-1.634,2.706-3.404,3.94-5.321
			c0.605-0.957,1.188-1.958,1.597-2.933c0.199-0.482,0.345-0.965,0.388-1.333c0.022-0.176-0.006-0.348,0.006-0.287l-0.049-0.239
			c-0.01-0.049,0.039,0.195,0.012,0.073l-0.014-0.041l-0.026-0.082c-0.031-0.113-0.073-0.21-0.112-0.308
			c-0.357-0.77-0.666-1.02-1.556-1.295c-0.209-0.064-0.475-0.11-0.679-0.146c-0.096-0.021-0.321-0.044-0.477-0.067l-0.377-0.019
			c-0.263-0.022-0.561-0.025-0.88-0.015c-0.306,0-0.623,0.008-0.956,0.034c-2.626,0.149-5.486,0.616-8.352,1.168
			c-1.44,0.271-2.89,0.594-4.333,0.949c-0.722,0.181-1.437,0.375-2.142,0.582c-0.356,0.098-0.688,0.214-1.036,0.32
			c-0.36,0.11-0.578,0.209-0.879,0.307c-0.291,0.119-0.77,0.328-1.007,0.449c-0.493,0.203-1.048,0.551-2.292,0.587
			c-0.608,0.01-1.404-0.196-1.983-0.583c-0.302-0.19-0.525-0.394-0.731-0.603c-0.18-0.194-0.348-0.399-0.502-0.643
			c-0.196-0.308-0.166-0.283-0.235-0.4l-0.189-0.371l-0.268-0.536c-0.712-1.433-1.431-2.88-2.155-4.338
			c-0.74-1.468-1.486-2.948-2.238-4.439c-0.353-0.72-0.701-1.377-1.1-2.032c-0.195-0.329-0.392-0.659-0.588-0.937
			c-0.199-0.294-0.367-0.574-0.651-0.927c-1.853-2.55-3.467-3.382-6.359-2.731c-1.357,0.29-2.877,0.985-4.489,1.669
			c-1.591,0.673-3.178,1.369-4.791,2.02c-3.223,1.344-6.458,2.692-9.694,4.041l-2.429,1.018c-0.71,0.259-1.852,0.967-3.349,0.619
			c-0.714-0.19-1.214-0.563-1.628-0.935l-0.961-0.932l-1.885-1.808c-1.247-1.207-2.54-2.29-3.907-3.395
			c-1.303-1.056-2.738-2.025-4.198-2.586c-1.47-0.597-2.964-0.406-4.297,0.435c-1.345,0.829-2.501,2.002-3.622,3.265
			c-2.263,2.494-4.43,4.986-6.458,7.6c-1.022,1.29-2.037,2.568-3.042,3.835c-0.532,0.65-1.028,1.32-1.854,2.016
			c-0.429,0.337-0.931,0.702-1.563,0.919c-0.305,0.133-0.612,0.179-0.923,0.254c-0.284,0.037-0.592,0.078-0.854,0.084
			c-1.064,0.026-1.908-0.084-2.707-0.203c-0.779-0.118-1.553-0.235-2.322-0.351c-1.474-0.197-2.933-0.393-4.396-0.529
			c-2.916-0.301-5.812-0.525-8.643-0.741l-0.529-0.04l-0.264-0.02l-0.156-0.005c-0.2-0.013-0.41,0.01-0.619,0.038
			c-0.417,0.071-0.834,0.23-1.161,0.419c-0.33,0.168-0.544,0.465-0.532,0.411c0.018-0.048,0.022-0.107,0.013-0.154l-0.042,0.247
			c-0.017,0.173,0.011-0.166,0.007-0.109l-0.004,0.06l-0.009,0.12l-0.018,0.239l-0.055,0.926c-0.02,0.595-0.021,1.167,0.026,1.69
			c0.023,0.252,0.063,0.532,0.1,0.734l0.054,0.286c0.012,0.093,0.091,0.284,0.129,0.421l0.072,0.225l0.018,0.056
			c-0.067-0.162-0.006-0.014-0.016-0.036L13.64,28l0.171,0.424c0.114,0.282,0.227,0.563,0.34,0.842
			c0.227,0.558,0.451,1.11,0.673,1.654c0.955,2.162,1.87,4.197,2.783,6.119c0.234,0.481,0.464,0.955,0.691,1.421
			c0.235,0.446,0.432,0.978,0.651,1.306c0.459,0.759,1.035,1.538,1.584,2.257c1.104,1.455,2.188,2.762,3.139,3.964
			c1.922,2.391,3.446,4.271,4.435,5.598c0.496,0.659,0.872,1.184,1.119,1.54c0.232,0.356,0.352,0.541,0.352,0.541L29.173,53.961z"/>
	</g>
	<g>
		<path fill="#F6A7B7" d="M39.21,56.563c0,0-0.106-0.124-0.311-0.363c-0.208-0.228-0.518-0.558-0.944-0.993
			c-0.864-0.858-2.131-2.117-3.744-3.719c-0.812-0.803-1.693-1.705-2.644-2.726c-0.477-0.518-0.959-1.042-1.465-1.72
			c-0.435-0.627-0.885-1.276-1.35-1.947c-0.9-1.324-1.834-2.786-2.74-4.359c-0.22-0.4-0.444-0.805-0.67-1.215l-0.34-0.622
			l-0.171-0.314l-0.043-0.079c-0.023-0.054,0.022,0.064-0.058-0.13l-0.018-0.04l-0.073-0.159c-0.052-0.121-0.091-0.18-0.148-0.354
			l-0.163-0.514c-0.093-0.336-0.15-0.607-0.205-0.909c-0.102-0.588-0.145-1.152-0.172-1.703l-0.021-0.8l-0.002-0.195l-0.001-0.098
			l0-0.049c-0.004,0.021,0.032-0.367,0.019-0.224l0.015-0.186c0.031-0.189,0.079-0.393,0.14-0.585
			c0.424-1.184,1.098-1.773,1.764-2.268c0.677-0.479,1.412-0.77,2.196-0.951c0.395-0.081,0.801-0.137,1.224-0.138l0.902,0.014
			c2.092,0.054,4.299,0.063,6.618,0.282c1.148,0.058,2.35,0.265,3.545,0.42c0.559,0.092,1.121,0.184,1.687,0.277
			c0.536,0.087,1.047,0.153,1.265,0.15c0.061,0.002,0.054-0.01,0.08-0.002c-0.024-0.013-0.022,0.012-0.062,0.009
			c-0.071,0.037-0.078,0.03-0.009-0.01c0.153-0.113,0.548-0.513,0.916-0.917c0.404-0.443,0.811-0.889,1.218-1.336
			c0.414-0.439,0.829-0.881,1.246-1.325c1.636-1.768,3.462-3.565,5.298-5.352l0.344-0.336c0.179-0.176,0.25-0.23,0.38-0.352
			l0.35-0.317l0.431-0.366c0.578-0.488,1.183-0.934,1.936-1.358c0.729-0.417,1.683-0.784,2.716-0.866
			c1.036-0.093,2.038,0.131,2.846,0.445c1.616,0.674,2.706,1.503,3.802,2.42c0.944,0.815,2.011,1.754,2.932,2.7l1.379,1.403
			c0.466,0.502,0.932,0.918,0.802,0.854c-0.032,0.016-0.022,0.071,0.172,0.024c0.071,0,0.197-0.057,0.302-0.085l0.445-0.174
			l1.813-0.724c2.423-0.956,4.802-1.989,7.204-2.986c1.204-0.489,2.376-1.038,3.558-1.559c1.174-0.509,2.345-1.113,3.694-1.47
			c1.31-0.367,2.846-0.495,4.28,0.024c1.425,0.512,2.537,1.577,3.396,2.542c0.882,0.994,1.682,2.118,2.361,3.202
			c0.66,1.05,1.315,2.093,1.965,3.127c0.645,1.046,1.246,2.106,1.859,3.149l0.229,0.391l0.057,0.098l0.028,0.049
			c0.046,0.086-0.03-0.062-0.012-0.03c0.028,0.041,0.116,0.191,0.062,0.076c-0.034-0.06-0.06-0.106-0.097-0.144
			c-0.048-0.059-0.109-0.114-0.21-0.186c-0.191-0.139-0.505-0.223-0.676-0.223c-0.357,0.014-0.225,0.024-0.07-0.079
			c0.35-0.176,0.53-0.261,0.855-0.405c0.729-0.297,1.325-0.495,1.915-0.682c0.594-0.178,1.183-0.33,1.763-0.475
			c1.161-0.288,2.311-0.511,3.446-0.709c2.287-0.363,4.485-0.631,6.779-0.679c0.281-0.01,0.577-0.007,0.88,0.004
			c0.291,0.003,0.599,0.018,0.936,0.057c0.177,0.02,0.293,0.023,0.52,0.059l0.413,0.075c0.38,0.076,0.696,0.16,1.045,0.289
			c0.681,0.239,1.427,0.646,2.041,1.254c0.611,0.606,1.029,1.367,1.245,2.044c0.056,0.17,0.108,0.341,0.145,0.503l0.03,0.123
			l0.05,0.234l0.024,0.179c0.073,0.618,0.015,1.006-0.048,1.382c-0.147,0.731-0.389,1.295-0.637,1.809
			c-0.501,1.017-1.078,1.827-1.663,2.581c-1.169,1.496-2.354,2.752-3.481,3.911c-2.299,2.269-4.371,4.111-6.104,5.596
			c-1.717,1.498-3.095,2.633-3.98,3.446c-0.919,0.802-1.227,1.298-1.183,1.265l-0.486-0.12c-0.026-0.059,0.24-0.758,0.965-1.762
			c0.717-1.02,1.832-2.443,3.296-4.189c1.439-1.767,3.255-3.844,5.171-6.298c0.967-1.21,1.972-2.521,2.856-3.922
			c0.433-0.699,0.848-1.426,1.132-2.101c0.138-0.333,0.23-0.659,0.251-0.867c0.013-0.095-0.017-0.188,0.006-0.05l-0.037-0.177
			c-0.008-0.043,0.04,0.198,0.016,0.084l-0.009-0.026l-0.018-0.052c-0.021-0.073-0.047-0.132-0.071-0.191
			c-0.241-0.459-0.29-0.479-0.853-0.67c-0.13-0.039-0.311-0.069-0.432-0.094c-0.055-0.014-0.233-0.035-0.345-0.051l-0.249-0.014
			c-0.177-0.017-0.386-0.022-0.616-0.016c-0.218-0.002-0.444,0.001-0.688,0.018c-1.905,0.089-4.019,0.417-6.129,0.799
			c-1.064,0.178-2.131,0.41-3.202,0.631c-0.534,0.116-1.063,0.244-1.585,0.377c-0.525,0.127-1.043,0.276-1.413,0.386
			c-0.217,0.074-0.576,0.222-0.76,0.297c-0.378,0.137-0.806,0.388-1.76,0.401c-0.467,0-1.076-0.164-1.517-0.466
			c-0.229-0.148-0.397-0.306-0.552-0.469c-0.135-0.149-0.258-0.308-0.369-0.495c-0.145-0.236-0.119-0.221-0.165-0.309
			c0.001,0-0.092-0.182-0.063-0.129L97.609,33l-0.043-0.103l-0.17-0.411c-0.453-1.098-0.925-2.2-1.367-3.332
			c-0.47-1.128-0.943-2.265-1.421-3.41c-0.455-1.11-0.951-2.125-1.607-3.109c-0.646-1.013-1.363-1.828-2.314-2.266
			c-0.926-0.46-2.067-0.486-3.215-0.209c-1.138,0.264-2.28,0.814-3.441,1.375c-1.157,0.556-2.329,1.087-3.475,1.681
			c-2.313,1.127-4.582,2.416-6.843,3.701l-1.695,0.968l-0.433,0.246c-0.195,0.095-0.356,0.195-0.6,0.28
			c-0.411,0.177-1.073,0.321-1.737,0.19c-0.343-0.053-0.612-0.174-0.896-0.311c-0.135-0.075-0.27-0.155-0.4-0.24L67.733,27.9
			l-0.835-0.64l-1.532-1.166c-1.023-0.76-1.955-1.456-3.06-2.198c-0.956-0.624-2.003-1.276-2.791-1.494
			c-0.394-0.11-0.675-0.115-0.908-0.076c-0.234,0.043-0.498,0.14-0.85,0.378c-0.337,0.22-0.741,0.544-1.103,0.896l-0.276,0.261
			l-0.33,0.337c-0.094,0.099-0.255,0.255-0.293,0.306l-0.309,0.341c-1.638,1.824-3.291,3.549-4.869,5.44
			c-0.798,0.916-1.591,1.824-2.375,2.724c-0.437,0.478-0.832,0.977-1.617,1.591c-0.41,0.302-0.913,0.637-1.552,0.84
			c-0.311,0.118-0.608,0.16-0.917,0.219c-0.266,0.027-0.566,0.055-0.798,0.051c-0.954-0.015-1.599-0.143-2.202-0.255
			c-0.575-0.113-1.146-0.226-1.713-0.338c-1.072-0.158-2.093-0.402-3.171-0.52c-2.115-0.297-4.247-0.508-6.345-0.731l-0.663-0.068
			c-0.098-0.017-0.209-0.011-0.322-0.005c-0.225,0.022-0.465,0.099-0.635,0.176c-0.175,0.057-0.251,0.209-0.176-0.035
			c0.024-0.073,0.035-0.158,0.031-0.229l-0.036,0.183c-0.017,0.173,0.013-0.185,0.009-0.132l-0.004,0.043l-0.009,0.087l-0.018,0.174
			l-0.06,0.667c-0.027,0.423-0.042,0.823-0.022,1.181c0.009,0.169,0.03,0.368,0.045,0.489c0.008,0.055,0.014,0.11,0.017,0.167
			c0.001,0.054,0.06,0.208,0.084,0.307l0.049,0.168l0.012,0.042c-0.069-0.168-0.011-0.024-0.022-0.051l0.029,0.079l0.118,0.315
			l0.233,0.626c0.156,0.416,0.311,0.826,0.463,1.231c0.662,1.613,1.297,3.13,1.937,4.571c0.165,0.361,0.327,0.717,0.486,1.066
			c0.166,0.333,0.304,0.741,0.453,0.967c0.319,0.548,0.737,1.131,1.135,1.667c0.801,1.084,1.59,2.064,2.283,2.962
			c1.401,1.789,2.512,3.198,3.234,4.191c0.361,0.493,0.638,0.888,0.818,1.156c0.168,0.266,0.255,0.404,0.255,0.404L39.21,56.563z"/>
	</g>
	<g>
		<path fill="#F6A7B7" d="M87.513,110.053c0,0-0.412,0.32-1.133,0.88c-0.669,0.533-1.574,1.177-2.758,1.806
			c-0.601,0.289-1.245,0.64-2.015,0.819c-0.766,0.189-1.685,0.151-2.636,0.132c-0.958-0.037-1.896,0.066-2.756,0.412
			c-0.868,0.33-1.68,0.854-2.492,1.481c-0.813,0.62-1.674,1.242-2.641,1.618c-0.971,0.355-1.997,0.648-3.108,0.775
			c-1.105,0.12-2.328-0.006-3.446-0.511c-0.562-0.234-1.071-0.588-1.522-0.958c-0.222-0.193-0.421-0.4-0.607-0.606
			c-0.091-0.105-0.177-0.212-0.258-0.32l-0.061-0.08l-0.008-0.01c-0.297-0.339-0.084-0.099-0.152-0.176l-0.007-0.016l-0.014-0.031
			l-0.029-0.063c-0.01-0.022-0.007-0.023-0.065-0.115c-0.391-0.669-0.389-0.934-0.445-1.271c-0.042-0.327-0.048-0.62-0.013-0.912
			c0.056-0.575,0.224-1.111,0.496-1.577c0.529-0.958,1.451-1.391,2.044-1.473c0.624-0.084,1.041,0.035,1.308,0.135
			c0.258,0.116,0.395,0.178,0.395,0.178l0.048,0.498c0,0-0.093,0.098-0.269,0.282c-0.164,0.162-0.383,0.438-0.486,0.729
			c-0.107,0.307-0.009,0.569,0.188,0.721c0.08,0.071,0.184,0.152,0.287,0.213c0.054,0.025,0.1,0.061,0.152,0.055
			c0.023-0.011,0.164,0.043-0.052-0.324c-0.039-0.051-0.006-0.02,0.01-0.007l0.053,0.042l0.027,0.021l0.013,0.011
			c-0.063-0.073,0.152,0.172-0.141-0.163l0.004,0.001l0.036,0.013c0.049,0.015,0.09,0.037,0.134,0.055
			c0.09,0.031,0.179,0.06,0.269,0.081c0.17,0.06,0.357,0.074,0.546,0.124c0.386,0.07,0.871,0.178,1.517,0.282
			c0.643,0.107,1.419,0.145,2.249,0.121c0.833-0.01,1.775,0.105,2.74,0.149c0.968,0.055,1.915-0.059,2.768-0.38
			c0.861-0.306,1.609-0.869,2.281-1.552c0.679-0.664,1.335-1.328,2.072-1.71c0.731-0.393,1.516-0.561,2.245-0.716
			c1.476-0.265,2.849-0.179,3.802,0.132c0.475,0.136,0.839,0.32,1.089,0.457c0.228,0.148,0.341,0.247,0.341,0.247V110.053z"/>
	</g>
</g>
</svg>
